<svg xmlns="http://www.w3.org/2000/svg" viewBox="0 0 100 100">

  <!-- orelha esquerda -->
  <polygon points="30,2 18,48 42,48" fill="#ffffff"/>
  <polygon points="30,2 42,48 46,14" fill="#e0e0e0"/>
  <polygon points="31,10 21,45 39,45" fill="#f5c0cc"/>

  <!-- orelha direita -->
  <polygon points="70,2 58,48 82,48" fill="#ffffff"/>
  <polygon points="70,2 82,48 86,14" fill="#e0e0e0"/>
  <polygon points="71,10 61,45 79,45" fill="#f5c0cc"/>

  <!-- cabeça -->
  <polygon points="10,46 50,32 90,46 95,75 50,90 5,75" fill="#ffffff"/>
  <polygon points="10,46 50,32 50,62" fill="#eeeeee"/>
  <polygon points="50,32 90,46 50,62" fill="#e0e0e0"/>
  <polygon points="10,46 50,62 5,75" fill="#e8e8e8"/>
  <polygon points="90,46 50,62 95,75" fill="#d8d8d8"/>
  <polygon points="50,62 5,75 50,90 95,75" fill="#eeeeee"/>

  <!-- nariz -->
  <ellipse cx="50" cy="72" rx="6" ry="4" fill="#e06080"/>

  <!-- boca -->
  <path d="M44,76 Q50,83 56,76" fill="none" stroke="#c04060" stroke-width="2" stroke-linecap="round"/>

</svg>